<svg width="24" height="24" viewBox="0 0 24 24" fill="none" xmlns="http://www.w3.org/2000/svg">
<path fill-rule="evenodd" clip-rule="evenodd" d="M9 9H5C3.89543 9 3 9.89543 3 11V19C3 20.1046 3.89543 21 5 21H13C14.1046 21 15 20.1046 15 19V15H13V18.5C13 18.7761 12.7761 19 12.5 19H5.5C5.22386 19 5 18.7761 5 18.5L5 11.5C5 11.2239 5.22386 11 5.5 11H9V9Z" fill="black"/>
<path fill-rule="evenodd" clip-rule="evenodd" d="M19 5.5C19 5.22386 18.7761 5 18.5 5H11.5C11.2239 5 11 5.22386 11 5.5L11 12.5C11 12.7761 11.2239 13 11.5 13H18.5C18.7761 13 19 12.7761 19 12.5V5.5ZM11 3C9.89543 3 9 3.89543 9 5V13C9 14.1046 9.89543 15 11 15H19C20.1046 15 21 14.1046 21 13V5C21 3.89543 20.1046 3 19 3H11Z" fill="black"/>
</svg>
