<svg width="24" height="24" viewBox="0 0 24 24" fill="none" xmlns="http://www.w3.org/2000/svg">
<path fill-rule="evenodd" clip-rule="evenodd" d="M20 6.5C20 6.22386 19.7761 6 19.5 6H4.5C4.22386 6 4 6.22386 4 6.5V17.5C4 17.7761 4.22386 18 4.5 18H19.5C19.7761 18 20 17.7761 20 17.5V6.5ZM4 4C2.89543 4 2 4.89543 2 6V18C2 19.1046 2.89543 20 4 20H20C21.1046 20 22 19.1046 22 18V6C22 4.89543 21.1046 4 20 4H4Z" fill="black"/>
<path fill-rule="evenodd" clip-rule="evenodd" d="M4.19999 7.4002C3.75817 7.06882 3.66862 6.44202 3.99999 6.0002C4.33136 5.55837 4.95817 5.46882 5.39999 5.8002L11.7 10.5252C11.8778 10.6585 12.1222 10.6585 12.3 10.5252L18.6 5.8002C19.0418 5.46882 19.6686 5.55837 20 6.0002C20.3314 6.44202 20.2418 7.06882 19.8 7.4002L12.6 12.8002C12.2444 13.0669 11.7556 13.0669 11.4 12.8002L4.19999 7.4002Z" fill="black"/>
</svg>
