<svg width="24" height="24" viewBox="0 0 24 24" fill="none" xmlns="http://www.w3.org/2000/svg">
<path fill-rule="evenodd" clip-rule="evenodd" d="M9.13604 14.864C11.6184 17.3463 14.627 19 17 19V21C13.8501 21 10.3588 18.9151 7.72183 16.2782C5.08486 13.6412 3 10.1499 3 7H5C5 9.37299 6.65372 12.3816 9.13604 14.864Z" fill="black"/>
<path d="M3 4C3 3.44772 3.44772 3 4 3H8C8.55228 3 9 3.44772 9 4V10C9 10.5523 8.55228 11 8 11H7C4.79086 11 3 9.20914 3 7V4Z" fill="black"/>
<path d="M13 16C13 15.4477 13.4477 15 14 15H20C20.5523 15 21 15.4477 21 16V20C21 20.5523 20.5523 21 20 21H17C14.7909 21 13 19.2091 13 17V16Z" fill="black"/>
</svg>
