<svg width="24" height="24" viewBox="0 0 24 24" fill="none" xmlns="http://www.w3.org/2000/svg">
<path fill-rule="evenodd" clip-rule="evenodd" d="M17.4632 12.2654C17.8533 11.3882 18 10.7407 18 10.3183C18 6.87277 15.3137 4.07959 12 4.07959C8.68629 4.07959 6 6.87277 6 10.3183C6 10.7407 6.14675 11.3882 6.53684 12.2654C6.91597 13.118 7.46393 14.0529 8.11364 15.0102C9.23626 16.6644 10.5754 18.259 11.6335 19.4382C11.8295 19.6567 12.1705 19.6567 12.3665 19.4382C13.4246 18.259 14.7637 16.6644 15.8864 15.0102C16.5361 14.0529 17.084 13.118 17.4632 12.2654ZM13.334 21.4013C15.6099 18.9298 20 13.7216 20 10.3183C20 5.72425 16.4183 2 12 2C7.58172 2 4 5.72425 4 10.3183C4 13.7216 8.39008 18.9298 10.666 21.4013C11.4011 22.1996 12.5989 22.1996 13.334 21.4013Z" fill="black"/>
<circle cx="12" cy="10" r="2" fill="black"/>
</svg>
