<svg width="24" height="24" viewBox="0 0 24 24" fill="none" xmlns="http://www.w3.org/2000/svg">
<path fill-rule="evenodd" clip-rule="evenodd" d="M10 15C12.7614 15 15 12.7614 15 10C15 7.23858 12.7614 5 10 5C7.23858 5 5 7.23858 5 10C5 12.7614 7.23858 15 10 15ZM10 17C13.866 17 17 13.866 17 10C17 6.13401 13.866 3 10 3C6.13401 3 3 6.13401 3 10C3 13.866 6.13401 17 10 17Z" fill="black"/>
<path d="M15.4142 14L20.364 18.9497C20.7545 19.3403 20.7545 19.9734 20.364 20.364C19.9734 20.7545 19.3403 20.7545 18.9497 20.364L14 15.4142L15.4142 14Z" fill="black"/>
</svg>
