<svg width="24" height="24" viewBox="0 0 24 24" fill="none" xmlns="http://www.w3.org/2000/svg">
<path d="M7 9L7 15C7 17.7614 9.23858 20 12 20C14.7614 20 17 17.7614 17 15L17 7C17 6.44771 17.4477 6 18 6C18.5523 6 19 6.44771 19 7L19 15C19 18.866 15.866 22 12 22C8.13401 22 5 18.866 5 15L5 9L7 9Z" fill="black"/>
<path d="M7 7L7 13L5 13L5 7C5 4.23858 7.23858 2 10 2C12.7614 2 15 4.23858 15 7L15 13L13 13L13 7C13 5.34315 11.6569 4 10 4C8.34315 4 7 5.34315 7 7Z" fill="black"/>
<path d="M11 7L11 15C11 15.5523 11.4477 16 12 16C12.5523 16 13 15.5523 13 15L13 8L15 8L15 15C15 16.6569 13.6569 18 12 18C10.3431 18 9 16.6569 9 15L9 7C9 6.44771 9.44771 6 10 6C10.5523 6 11 6.44771 11 7Z" fill="black"/>
</svg>
